<mxfile host="Electron" agent="Mozilla/5.0 (Windows NT 10.0; Win64; x64) AppleWebKit/537.36 (KHTML, like Gecko) draw.io/26.1.1 Chrome/132.0.6834.210 Electron/34.3.3 Safari/537.36" version="26.1.1">
  <diagram name="digrama-casos-uso" id="cVmgFsg3Rx5wpn8s-_xm">
    <mxGraphModel dx="2206" dy="1686" grid="1" gridSize="10" guides="1" tooltips="1" connect="1" arrows="1" fold="1" page="0" pageScale="1" pageWidth="827" pageHeight="1169" math="0" shadow="0">
      <root>
        <mxCell id="0" />
        <mxCell id="1" parent="0" />
        <mxCell id="en6OQ1vkhQpd69jf1zTb-2" value="" style="swimlane;startSize=0;" parent="1" vertex="1">
          <mxGeometry x="200" y="-240" width="1240" height="1600" as="geometry" />
        </mxCell>
        <mxCell id="en6OQ1vkhQpd69jf1zTb-5" value="Productos" style="ellipse;whiteSpace=wrap;html=1;" parent="en6OQ1vkhQpd69jf1zTb-2" vertex="1">
          <mxGeometry x="80" y="700.25" width="90" height="60" as="geometry" />
        </mxCell>
        <mxCell id="en6OQ1vkhQpd69jf1zTb-7" value="Filtrar/Buscar" style="ellipse;whiteSpace=wrap;html=1;" parent="en6OQ1vkhQpd69jf1zTb-2" vertex="1">
          <mxGeometry x="154.5" y="560" width="87.5" height="50" as="geometry" />
        </mxCell>
        <mxCell id="en6OQ1vkhQpd69jf1zTb-11" value="Gestion recetas" style="ellipse;whiteSpace=wrap;html=1;" parent="en6OQ1vkhQpd69jf1zTb-2" vertex="1">
          <mxGeometry x="870" y="309.5" width="100" height="60" as="geometry" />
        </mxCell>
        <mxCell id="en6OQ1vkhQpd69jf1zTb-12" value="Agregar" style="ellipse;whiteSpace=wrap;html=1;" parent="en6OQ1vkhQpd69jf1zTb-2" vertex="1">
          <mxGeometry x="760" y="215" width="110" height="60" as="geometry" />
        </mxCell>
        <mxCell id="en6OQ1vkhQpd69jf1zTb-13" value="Modificar&amp;nbsp;" style="ellipse;whiteSpace=wrap;html=1;" parent="en6OQ1vkhQpd69jf1zTb-2" vertex="1">
          <mxGeometry x="700" y="309.5" width="110" height="60" as="geometry" />
        </mxCell>
        <mxCell id="en6OQ1vkhQpd69jf1zTb-14" value="Eliminar" style="ellipse;whiteSpace=wrap;html=1;" parent="en6OQ1vkhQpd69jf1zTb-2" vertex="1">
          <mxGeometry x="760" y="395" width="110" height="60" as="geometry" />
        </mxCell>
        <mxCell id="en6OQ1vkhQpd69jf1zTb-16" value="" style="endArrow=classic;html=1;rounded=0;exitX=1.015;exitY=0.592;exitDx=0;exitDy=0;exitPerimeter=0;entryX=0.5;entryY=0;entryDx=0;entryDy=0;" parent="en6OQ1vkhQpd69jf1zTb-2" source="en6OQ1vkhQpd69jf1zTb-12" target="en6OQ1vkhQpd69jf1zTb-11" edge="1">
          <mxGeometry relative="1" as="geometry">
            <mxPoint x="890" y="185" as="sourcePoint" />
            <mxPoint x="990" y="185" as="targetPoint" />
          </mxGeometry>
        </mxCell>
        <mxCell id="en6OQ1vkhQpd69jf1zTb-17" value="Include" style="edgeLabel;resizable=0;html=1;;align=center;verticalAlign=middle;" parent="en6OQ1vkhQpd69jf1zTb-16" connectable="0" vertex="1">
          <mxGeometry relative="1" as="geometry" />
        </mxCell>
        <mxCell id="en6OQ1vkhQpd69jf1zTb-19" value="" style="endArrow=classic;html=1;rounded=0;exitX=1;exitY=0.5;exitDx=0;exitDy=0;entryX=0;entryY=0.5;entryDx=0;entryDy=0;" parent="en6OQ1vkhQpd69jf1zTb-2" source="en6OQ1vkhQpd69jf1zTb-13" target="en6OQ1vkhQpd69jf1zTb-11" edge="1">
          <mxGeometry relative="1" as="geometry">
            <mxPoint x="870" y="355" as="sourcePoint" />
            <mxPoint x="918" y="414" as="targetPoint" />
          </mxGeometry>
        </mxCell>
        <mxCell id="en6OQ1vkhQpd69jf1zTb-20" value="Include" style="edgeLabel;resizable=0;html=1;;align=center;verticalAlign=middle;" parent="en6OQ1vkhQpd69jf1zTb-19" connectable="0" vertex="1">
          <mxGeometry relative="1" as="geometry" />
        </mxCell>
        <mxCell id="en6OQ1vkhQpd69jf1zTb-21" value="" style="endArrow=classic;html=1;rounded=0;exitX=1;exitY=0;exitDx=0;exitDy=0;entryX=0;entryY=1;entryDx=0;entryDy=0;" parent="en6OQ1vkhQpd69jf1zTb-2" source="en6OQ1vkhQpd69jf1zTb-14" target="en6OQ1vkhQpd69jf1zTb-11" edge="1">
          <mxGeometry relative="1" as="geometry">
            <mxPoint x="892" y="271" as="sourcePoint" />
            <mxPoint x="940" y="330" as="targetPoint" />
          </mxGeometry>
        </mxCell>
        <mxCell id="en6OQ1vkhQpd69jf1zTb-22" value="Include" style="edgeLabel;resizable=0;html=1;;align=center;verticalAlign=middle;" parent="en6OQ1vkhQpd69jf1zTb-21" connectable="0" vertex="1">
          <mxGeometry relative="1" as="geometry" />
        </mxCell>
        <mxCell id="en6OQ1vkhQpd69jf1zTb-25" value="Gestion usuarios" style="ellipse;whiteSpace=wrap;html=1;" parent="en6OQ1vkhQpd69jf1zTb-2" vertex="1">
          <mxGeometry x="910" y="160" width="120" height="80" as="geometry" />
        </mxCell>
        <mxCell id="en6OQ1vkhQpd69jf1zTb-30" value="Iniciar sesion" style="ellipse;whiteSpace=wrap;html=1;" parent="en6OQ1vkhQpd69jf1zTb-2" vertex="1">
          <mxGeometry x="80" y="350" width="100" height="60" as="geometry" />
        </mxCell>
        <mxCell id="en6OQ1vkhQpd69jf1zTb-23" value="Registrarse" style="ellipse;whiteSpace=wrap;html=1;" parent="en6OQ1vkhQpd69jf1zTb-2" vertex="1">
          <mxGeometry x="50" y="110" width="100" height="60" as="geometry" />
        </mxCell>
        <mxCell id="en6OQ1vkhQpd69jf1zTb-26" value="Crear usuario" style="ellipse;whiteSpace=wrap;html=1;" parent="en6OQ1vkhQpd69jf1zTb-2" vertex="1">
          <mxGeometry x="189.25" y="140" width="110" height="60" as="geometry" />
        </mxCell>
        <mxCell id="en6OQ1vkhQpd69jf1zTb-28" value="" style="endArrow=classic;html=1;rounded=0;exitX=0;exitY=0.5;exitDx=0;exitDy=0;entryX=1;entryY=0.5;entryDx=0;entryDy=0;" parent="en6OQ1vkhQpd69jf1zTb-2" source="en6OQ1vkhQpd69jf1zTb-26" target="en6OQ1vkhQpd69jf1zTb-23" edge="1">
          <mxGeometry relative="1" as="geometry">
            <mxPoint x="184.5" y="240" as="sourcePoint" />
            <mxPoint x="160" y="140" as="targetPoint" />
          </mxGeometry>
        </mxCell>
        <mxCell id="en6OQ1vkhQpd69jf1zTb-29" value="Include" style="edgeLabel;resizable=0;html=1;;align=center;verticalAlign=middle;" parent="en6OQ1vkhQpd69jf1zTb-28" connectable="0" vertex="1">
          <mxGeometry relative="1" as="geometry" />
        </mxCell>
        <mxCell id="en6OQ1vkhQpd69jf1zTb-33" value="Modificar" style="ellipse;whiteSpace=wrap;html=1;" parent="en6OQ1vkhQpd69jf1zTb-2" vertex="1">
          <mxGeometry x="880" y="40" width="110" height="60" as="geometry" />
        </mxCell>
        <mxCell id="en6OQ1vkhQpd69jf1zTb-34" value="Eliminar" style="ellipse;whiteSpace=wrap;html=1;" parent="en6OQ1vkhQpd69jf1zTb-2" vertex="1">
          <mxGeometry x="770" y="110" width="110" height="60" as="geometry" />
        </mxCell>
        <mxCell id="en6OQ1vkhQpd69jf1zTb-35" value="" style="endArrow=classic;html=1;rounded=0;exitX=1;exitY=1;exitDx=0;exitDy=0;entryX=0;entryY=0.5;entryDx=0;entryDy=0;" parent="en6OQ1vkhQpd69jf1zTb-2" source="en6OQ1vkhQpd69jf1zTb-34" target="en6OQ1vkhQpd69jf1zTb-25" edge="1">
          <mxGeometry relative="1" as="geometry">
            <mxPoint x="842" y="276" as="sourcePoint" />
            <mxPoint x="890" y="335" as="targetPoint" />
          </mxGeometry>
        </mxCell>
        <mxCell id="en6OQ1vkhQpd69jf1zTb-36" value="Include" style="edgeLabel;resizable=0;html=1;;align=center;verticalAlign=middle;" parent="en6OQ1vkhQpd69jf1zTb-35" connectable="0" vertex="1">
          <mxGeometry relative="1" as="geometry" />
        </mxCell>
        <mxCell id="en6OQ1vkhQpd69jf1zTb-37" value="" style="endArrow=classic;html=1;rounded=0;exitX=0.5;exitY=1;exitDx=0;exitDy=0;entryX=0.5;entryY=0;entryDx=0;entryDy=0;" parent="en6OQ1vkhQpd69jf1zTb-2" source="en6OQ1vkhQpd69jf1zTb-33" target="en6OQ1vkhQpd69jf1zTb-25" edge="1">
          <mxGeometry relative="1" as="geometry">
            <mxPoint x="852" y="286" as="sourcePoint" />
            <mxPoint x="900" y="345" as="targetPoint" />
          </mxGeometry>
        </mxCell>
        <mxCell id="en6OQ1vkhQpd69jf1zTb-38" value="Include" style="edgeLabel;resizable=0;html=1;;align=center;verticalAlign=middle;" parent="en6OQ1vkhQpd69jf1zTb-37" connectable="0" vertex="1">
          <mxGeometry relative="1" as="geometry" />
        </mxCell>
        <mxCell id="en6OQ1vkhQpd69jf1zTb-80" value="Crear" style="ellipse;whiteSpace=wrap;html=1;" parent="en6OQ1vkhQpd69jf1zTb-2" vertex="1">
          <mxGeometry x="1030" y="40" width="110" height="60" as="geometry" />
        </mxCell>
        <mxCell id="en6OQ1vkhQpd69jf1zTb-81" value="" style="endArrow=classic;html=1;rounded=0;exitX=0;exitY=1;exitDx=0;exitDy=0;entryX=1;entryY=0;entryDx=0;entryDy=0;" parent="en6OQ1vkhQpd69jf1zTb-2" source="en6OQ1vkhQpd69jf1zTb-80" target="en6OQ1vkhQpd69jf1zTb-25" edge="1">
          <mxGeometry relative="1" as="geometry">
            <mxPoint x="945" y="110" as="sourcePoint" />
            <mxPoint x="980" y="170" as="targetPoint" />
          </mxGeometry>
        </mxCell>
        <mxCell id="en6OQ1vkhQpd69jf1zTb-82" value="Include" style="edgeLabel;resizable=0;html=1;;align=center;verticalAlign=middle;" parent="en6OQ1vkhQpd69jf1zTb-81" connectable="0" vertex="1">
          <mxGeometry relative="1" as="geometry" />
        </mxCell>
        <mxCell id="KXxqBj54iLF5H491kml4-2" value="Correo" style="ellipse;whiteSpace=wrap;html=1;" parent="en6OQ1vkhQpd69jf1zTb-2" vertex="1">
          <mxGeometry x="160" y="20" width="110" height="60" as="geometry" />
        </mxCell>
        <mxCell id="KXxqBj54iLF5H491kml4-3" value="" style="endArrow=classic;html=1;rounded=0;exitX=0.5;exitY=1;exitDx=0;exitDy=0;entryX=0.5;entryY=0;entryDx=0;entryDy=0;" parent="en6OQ1vkhQpd69jf1zTb-2" source="KXxqBj54iLF5H491kml4-2" target="en6OQ1vkhQpd69jf1zTb-26" edge="1">
          <mxGeometry relative="1" as="geometry">
            <mxPoint x="231" y="150" as="sourcePoint" />
            <mxPoint x="160" y="150" as="targetPoint" />
          </mxGeometry>
        </mxCell>
        <mxCell id="KXxqBj54iLF5H491kml4-4" value="Include" style="edgeLabel;resizable=0;html=1;;align=center;verticalAlign=middle;" parent="KXxqBj54iLF5H491kml4-3" connectable="0" vertex="1">
          <mxGeometry relative="1" as="geometry" />
        </mxCell>
        <mxCell id="KXxqBj54iLF5H491kml4-5" value="Contraseña" style="ellipse;whiteSpace=wrap;html=1;" parent="en6OQ1vkhQpd69jf1zTb-2" vertex="1">
          <mxGeometry x="299.25" y="20" width="110" height="60" as="geometry" />
        </mxCell>
        <mxCell id="KXxqBj54iLF5H491kml4-6" value="" style="endArrow=classic;html=1;rounded=0;exitX=0;exitY=1;exitDx=0;exitDy=0;entryX=1;entryY=0;entryDx=0;entryDy=0;" parent="en6OQ1vkhQpd69jf1zTb-2" source="KXxqBj54iLF5H491kml4-5" target="en6OQ1vkhQpd69jf1zTb-26" edge="1">
          <mxGeometry relative="1" as="geometry">
            <mxPoint x="264" y="71" as="sourcePoint" />
            <mxPoint x="286" y="120" as="targetPoint" />
          </mxGeometry>
        </mxCell>
        <mxCell id="KXxqBj54iLF5H491kml4-7" value="Include" style="edgeLabel;resizable=0;html=1;;align=center;verticalAlign=middle;" parent="KXxqBj54iLF5H491kml4-6" connectable="0" vertex="1">
          <mxGeometry relative="1" as="geometry" />
        </mxCell>
        <mxCell id="KXxqBj54iLF5H491kml4-8" value="Pais" style="ellipse;whiteSpace=wrap;html=1;" parent="en6OQ1vkhQpd69jf1zTb-2" vertex="1">
          <mxGeometry x="377" y="90" width="110" height="60" as="geometry" />
        </mxCell>
        <mxCell id="KXxqBj54iLF5H491kml4-9" value="" style="endArrow=classic;html=1;rounded=0;exitX=0;exitY=0.5;exitDx=0;exitDy=0;entryX=1;entryY=0.5;entryDx=0;entryDy=0;" parent="en6OQ1vkhQpd69jf1zTb-2" source="KXxqBj54iLF5H491kml4-8" target="en6OQ1vkhQpd69jf1zTb-26" edge="1">
          <mxGeometry relative="1" as="geometry">
            <mxPoint x="336" y="71" as="sourcePoint" />
            <mxPoint x="293" y="159" as="targetPoint" />
          </mxGeometry>
        </mxCell>
        <mxCell id="KXxqBj54iLF5H491kml4-10" value="Include" style="edgeLabel;resizable=0;html=1;;align=center;verticalAlign=middle;" parent="KXxqBj54iLF5H491kml4-9" connectable="0" vertex="1">
          <mxGeometry relative="1" as="geometry" />
        </mxCell>
        <mxCell id="KXxqBj54iLF5H491kml4-11" value="Telefono" style="ellipse;whiteSpace=wrap;html=1;" parent="en6OQ1vkhQpd69jf1zTb-2" vertex="1">
          <mxGeometry x="377" y="180" width="110" height="60" as="geometry" />
        </mxCell>
        <mxCell id="KXxqBj54iLF5H491kml4-12" value="" style="endArrow=classic;html=1;rounded=0;exitX=0;exitY=0.5;exitDx=0;exitDy=0;entryX=1;entryY=1;entryDx=0;entryDy=0;" parent="en6OQ1vkhQpd69jf1zTb-2" source="KXxqBj54iLF5H491kml4-11" target="en6OQ1vkhQpd69jf1zTb-26" edge="1">
          <mxGeometry relative="1" as="geometry">
            <mxPoint x="387" y="120" as="sourcePoint" />
            <mxPoint x="309" y="180" as="targetPoint" />
          </mxGeometry>
        </mxCell>
        <mxCell id="KXxqBj54iLF5H491kml4-13" value="Include" style="edgeLabel;resizable=0;html=1;;align=center;verticalAlign=middle;" parent="KXxqBj54iLF5H491kml4-12" connectable="0" vertex="1">
          <mxGeometry relative="1" as="geometry" />
        </mxCell>
        <mxCell id="KXxqBj54iLF5H491kml4-14" value="" style="endArrow=classic;html=1;rounded=0;exitX=0.5;exitY=0;exitDx=0;exitDy=0;entryX=0;entryY=1;entryDx=0;entryDy=0;" parent="en6OQ1vkhQpd69jf1zTb-2" source="en6OQ1vkhQpd69jf1zTb-5" target="en6OQ1vkhQpd69jf1zTb-7" edge="1">
          <mxGeometry relative="1" as="geometry">
            <mxPoint x="436.25" y="490.25" as="sourcePoint" />
            <mxPoint x="342.25" y="471.25" as="targetPoint" />
          </mxGeometry>
        </mxCell>
        <mxCell id="KXxqBj54iLF5H491kml4-15" value="Extends" style="edgeLabel;resizable=0;html=1;;align=center;verticalAlign=middle;" parent="KXxqBj54iLF5H491kml4-14" connectable="0" vertex="1">
          <mxGeometry relative="1" as="geometry" />
        </mxCell>
        <mxCell id="KXxqBj54iLF5H491kml4-97" value="Comparar" style="ellipse;whiteSpace=wrap;html=1;" parent="en6OQ1vkhQpd69jf1zTb-2" vertex="1">
          <mxGeometry x="221.25" y="705.25" width="94.5" height="54.75" as="geometry" />
        </mxCell>
        <mxCell id="KXxqBj54iLF5H491kml4-99" value="" style="endArrow=classic;html=1;rounded=0;exitX=0;exitY=0.5;exitDx=0;exitDy=0;entryX=1;entryY=0.5;entryDx=0;entryDy=0;" parent="en6OQ1vkhQpd69jf1zTb-2" source="KXxqBj54iLF5H491kml4-97" target="en6OQ1vkhQpd69jf1zTb-5" edge="1">
          <mxGeometry relative="1" as="geometry">
            <mxPoint x="436.25" y="490.25" as="sourcePoint" />
            <mxPoint x="342.25" y="471.25" as="targetPoint" />
          </mxGeometry>
        </mxCell>
        <mxCell id="KXxqBj54iLF5H491kml4-100" value="Include" style="edgeLabel;resizable=0;html=1;;align=center;verticalAlign=middle;" parent="KXxqBj54iLF5H491kml4-99" connectable="0" vertex="1">
          <mxGeometry relative="1" as="geometry" />
        </mxCell>
        <mxCell id="KXxqBj54iLF5H491kml4-109" value="Recetas" style="ellipse;whiteSpace=wrap;html=1;" parent="en6OQ1vkhQpd69jf1zTb-2" vertex="1">
          <mxGeometry x="80" y="955" width="115" height="65" as="geometry" />
        </mxCell>
        <mxCell id="KXxqBj54iLF5H491kml4-111" value="Añadir" style="ellipse;whiteSpace=wrap;html=1;" parent="en6OQ1vkhQpd69jf1zTb-2" vertex="1">
          <mxGeometry x="241.25" y="900" width="115" height="65" as="geometry" />
        </mxCell>
        <mxCell id="KXxqBj54iLF5H491kml4-112" value="Filtrar" style="ellipse;whiteSpace=wrap;html=1;" parent="en6OQ1vkhQpd69jf1zTb-2" vertex="1">
          <mxGeometry x="255" y="982.5" width="115" height="65" as="geometry" />
        </mxCell>
        <mxCell id="KXxqBj54iLF5H491kml4-113" value="" style="endArrow=classic;html=1;rounded=0;entryX=0;entryY=0.5;entryDx=0;entryDy=0;" parent="en6OQ1vkhQpd69jf1zTb-2" source="KXxqBj54iLF5H491kml4-109" target="KXxqBj54iLF5H491kml4-111" edge="1">
          <mxGeometry relative="1" as="geometry">
            <mxPoint x="1149" y="376" as="sourcePoint" />
            <mxPoint x="1190" y="425" as="targetPoint" />
          </mxGeometry>
        </mxCell>
        <mxCell id="KXxqBj54iLF5H491kml4-114" value="Extends" style="edgeLabel;resizable=0;html=1;;align=center;verticalAlign=middle;" parent="KXxqBj54iLF5H491kml4-113" connectable="0" vertex="1">
          <mxGeometry relative="1" as="geometry" />
        </mxCell>
        <mxCell id="KXxqBj54iLF5H491kml4-115" value="" style="endArrow=classic;html=1;rounded=0;entryX=0;entryY=0.5;entryDx=0;entryDy=0;exitX=1;exitY=1;exitDx=0;exitDy=0;" parent="en6OQ1vkhQpd69jf1zTb-2" source="KXxqBj54iLF5H491kml4-109" target="KXxqBj54iLF5H491kml4-112" edge="1">
          <mxGeometry relative="1" as="geometry">
            <mxPoint x="187" y="974" as="sourcePoint" />
            <mxPoint x="237" y="943" as="targetPoint" />
          </mxGeometry>
        </mxCell>
        <mxCell id="KXxqBj54iLF5H491kml4-116" value="Extends" style="edgeLabel;resizable=0;html=1;;align=center;verticalAlign=middle;" parent="KXxqBj54iLF5H491kml4-115" connectable="0" vertex="1">
          <mxGeometry relative="1" as="geometry" />
        </mxCell>
        <mxCell id="KXxqBj54iLF5H491kml4-117" value="Gestion productos" style="ellipse;whiteSpace=wrap;html=1;" parent="en6OQ1vkhQpd69jf1zTb-2" vertex="1">
          <mxGeometry x="870" y="580" width="110" height="64.5" as="geometry" />
        </mxCell>
        <mxCell id="KXxqBj54iLF5H491kml4-118" value="Agregar" style="ellipse;whiteSpace=wrap;html=1;" parent="en6OQ1vkhQpd69jf1zTb-2" vertex="1">
          <mxGeometry x="760" y="490" width="110" height="60" as="geometry" />
        </mxCell>
        <mxCell id="KXxqBj54iLF5H491kml4-119" value="Modificar&amp;nbsp;" style="ellipse;whiteSpace=wrap;html=1;" parent="en6OQ1vkhQpd69jf1zTb-2" vertex="1">
          <mxGeometry x="700" y="584.5" width="110" height="60" as="geometry" />
        </mxCell>
        <mxCell id="KXxqBj54iLF5H491kml4-120" value="Eliminar" style="ellipse;whiteSpace=wrap;html=1;" parent="en6OQ1vkhQpd69jf1zTb-2" vertex="1">
          <mxGeometry x="760" y="670" width="110" height="60" as="geometry" />
        </mxCell>
        <mxCell id="KXxqBj54iLF5H491kml4-121" value="" style="endArrow=classic;html=1;rounded=0;exitX=1.015;exitY=0.592;exitDx=0;exitDy=0;exitPerimeter=0;entryX=0.5;entryY=0;entryDx=0;entryDy=0;" parent="en6OQ1vkhQpd69jf1zTb-2" source="KXxqBj54iLF5H491kml4-118" target="KXxqBj54iLF5H491kml4-117" edge="1">
          <mxGeometry relative="1" as="geometry">
            <mxPoint x="890" y="460" as="sourcePoint" />
            <mxPoint x="990" y="460" as="targetPoint" />
          </mxGeometry>
        </mxCell>
        <mxCell id="KXxqBj54iLF5H491kml4-122" value="Include" style="edgeLabel;resizable=0;html=1;;align=center;verticalAlign=middle;" parent="KXxqBj54iLF5H491kml4-121" connectable="0" vertex="1">
          <mxGeometry relative="1" as="geometry" />
        </mxCell>
        <mxCell id="KXxqBj54iLF5H491kml4-123" value="" style="endArrow=classic;html=1;rounded=0;exitX=1;exitY=0.5;exitDx=0;exitDy=0;entryX=0;entryY=0.5;entryDx=0;entryDy=0;" parent="en6OQ1vkhQpd69jf1zTb-2" source="KXxqBj54iLF5H491kml4-119" target="KXxqBj54iLF5H491kml4-117" edge="1">
          <mxGeometry relative="1" as="geometry">
            <mxPoint x="870" y="630" as="sourcePoint" />
            <mxPoint x="918" y="689" as="targetPoint" />
          </mxGeometry>
        </mxCell>
        <mxCell id="KXxqBj54iLF5H491kml4-124" value="Include" style="edgeLabel;resizable=0;html=1;;align=center;verticalAlign=middle;" parent="KXxqBj54iLF5H491kml4-123" connectable="0" vertex="1">
          <mxGeometry relative="1" as="geometry" />
        </mxCell>
        <mxCell id="KXxqBj54iLF5H491kml4-125" value="" style="endArrow=classic;html=1;rounded=0;exitX=1;exitY=0;exitDx=0;exitDy=0;entryX=0;entryY=1;entryDx=0;entryDy=0;" parent="en6OQ1vkhQpd69jf1zTb-2" source="KXxqBj54iLF5H491kml4-120" target="KXxqBj54iLF5H491kml4-117" edge="1">
          <mxGeometry relative="1" as="geometry">
            <mxPoint x="892" y="546" as="sourcePoint" />
            <mxPoint x="940" y="605" as="targetPoint" />
          </mxGeometry>
        </mxCell>
        <mxCell id="KXxqBj54iLF5H491kml4-126" value="Include" style="edgeLabel;resizable=0;html=1;;align=center;verticalAlign=middle;" parent="KXxqBj54iLF5H491kml4-125" connectable="0" vertex="1">
          <mxGeometry relative="1" as="geometry" />
        </mxCell>
        <mxCell id="6ZiX3sD0n53-EVIy7DBn-79" value="Correo" style="ellipse;whiteSpace=wrap;html=1;" vertex="1" parent="en6OQ1vkhQpd69jf1zTb-2">
          <mxGeometry x="130" y="250" width="110" height="60" as="geometry" />
        </mxCell>
        <mxCell id="6ZiX3sD0n53-EVIy7DBn-80" value="Contraseña" style="ellipse;whiteSpace=wrap;html=1;" vertex="1" parent="en6OQ1vkhQpd69jf1zTb-2">
          <mxGeometry x="250" y="310" width="110" height="60" as="geometry" />
        </mxCell>
        <mxCell id="6ZiX3sD0n53-EVIy7DBn-81" value="" style="endArrow=classic;html=1;rounded=0;exitX=0;exitY=0.5;exitDx=0;exitDy=0;entryX=1;entryY=0.5;entryDx=0;entryDy=0;" edge="1" parent="en6OQ1vkhQpd69jf1zTb-2" source="6ZiX3sD0n53-EVIy7DBn-80" target="en6OQ1vkhQpd69jf1zTb-30">
          <mxGeometry relative="1" as="geometry">
            <mxPoint x="325" y="111" as="sourcePoint" />
            <mxPoint x="293" y="189" as="targetPoint" />
          </mxGeometry>
        </mxCell>
        <mxCell id="6ZiX3sD0n53-EVIy7DBn-82" value="Include" style="edgeLabel;resizable=0;html=1;;align=center;verticalAlign=middle;" connectable="0" vertex="1" parent="6ZiX3sD0n53-EVIy7DBn-81">
          <mxGeometry relative="1" as="geometry" />
        </mxCell>
        <mxCell id="6ZiX3sD0n53-EVIy7DBn-83" value="" style="endArrow=classic;html=1;rounded=0;exitX=0;exitY=1;exitDx=0;exitDy=0;entryX=0.5;entryY=0;entryDx=0;entryDy=0;" edge="1" parent="en6OQ1vkhQpd69jf1zTb-2" source="6ZiX3sD0n53-EVIy7DBn-79" target="en6OQ1vkhQpd69jf1zTb-30">
          <mxGeometry relative="1" as="geometry">
            <mxPoint x="335" y="121" as="sourcePoint" />
            <mxPoint x="303" y="199" as="targetPoint" />
          </mxGeometry>
        </mxCell>
        <mxCell id="6ZiX3sD0n53-EVIy7DBn-84" value="Include" style="edgeLabel;resizable=0;html=1;;align=center;verticalAlign=middle;" connectable="0" vertex="1" parent="6ZiX3sD0n53-EVIy7DBn-83">
          <mxGeometry relative="1" as="geometry" />
        </mxCell>
        <mxCell id="6ZiX3sD0n53-EVIy7DBn-85" value="Nombre" style="ellipse;whiteSpace=wrap;html=1;" vertex="1" parent="en6OQ1vkhQpd69jf1zTb-2">
          <mxGeometry x="220" y="470" width="83.75" height="50" as="geometry" />
        </mxCell>
        <mxCell id="6ZiX3sD0n53-EVIy7DBn-86" value="Supermercado" style="ellipse;whiteSpace=wrap;html=1;" vertex="1" parent="en6OQ1vkhQpd69jf1zTb-2">
          <mxGeometry x="344.5" y="580" width="83.75" height="50" as="geometry" />
        </mxCell>
        <mxCell id="6ZiX3sD0n53-EVIy7DBn-87" value="Tipo de alimento" style="ellipse;whiteSpace=wrap;html=1;" vertex="1" parent="en6OQ1vkhQpd69jf1zTb-2">
          <mxGeometry x="323.75" y="500" width="90" height="55" as="geometry" />
        </mxCell>
        <mxCell id="6ZiX3sD0n53-EVIy7DBn-95" value="" style="endArrow=classic;html=1;rounded=0;exitX=1;exitY=0;exitDx=0;exitDy=0;entryX=0.5;entryY=1;entryDx=0;entryDy=0;" edge="1" parent="en6OQ1vkhQpd69jf1zTb-2" source="en6OQ1vkhQpd69jf1zTb-7" target="6ZiX3sD0n53-EVIy7DBn-85">
          <mxGeometry relative="1" as="geometry">
            <mxPoint x="79.5" y="690" as="sourcePoint" />
            <mxPoint x="177.5" y="613" as="targetPoint" />
          </mxGeometry>
        </mxCell>
        <mxCell id="6ZiX3sD0n53-EVIy7DBn-96" value="Extends" style="edgeLabel;resizable=0;html=1;;align=center;verticalAlign=middle;" connectable="0" vertex="1" parent="6ZiX3sD0n53-EVIy7DBn-95">
          <mxGeometry relative="1" as="geometry" />
        </mxCell>
        <mxCell id="6ZiX3sD0n53-EVIy7DBn-97" value="" style="endArrow=classic;html=1;rounded=0;exitX=1;exitY=0.5;exitDx=0;exitDy=0;entryX=0;entryY=1;entryDx=0;entryDy=0;" edge="1" parent="en6OQ1vkhQpd69jf1zTb-2" source="en6OQ1vkhQpd69jf1zTb-7" target="6ZiX3sD0n53-EVIy7DBn-87">
          <mxGeometry relative="1" as="geometry">
            <mxPoint x="89.5" y="700" as="sourcePoint" />
            <mxPoint x="187.5" y="623" as="targetPoint" />
          </mxGeometry>
        </mxCell>
        <mxCell id="6ZiX3sD0n53-EVIy7DBn-98" value="Extends" style="edgeLabel;resizable=0;html=1;;align=center;verticalAlign=middle;" connectable="0" vertex="1" parent="6ZiX3sD0n53-EVIy7DBn-97">
          <mxGeometry relative="1" as="geometry" />
        </mxCell>
        <mxCell id="6ZiX3sD0n53-EVIy7DBn-99" value="" style="endArrow=classic;html=1;rounded=0;exitX=1;exitY=1;exitDx=0;exitDy=0;entryX=0;entryY=0.5;entryDx=0;entryDy=0;" edge="1" parent="en6OQ1vkhQpd69jf1zTb-2" source="en6OQ1vkhQpd69jf1zTb-7" target="6ZiX3sD0n53-EVIy7DBn-86">
          <mxGeometry relative="1" as="geometry">
            <mxPoint x="99.5" y="710" as="sourcePoint" />
            <mxPoint x="197.5" y="633" as="targetPoint" />
          </mxGeometry>
        </mxCell>
        <mxCell id="6ZiX3sD0n53-EVIy7DBn-100" value="Extends" style="edgeLabel;resizable=0;html=1;;align=center;verticalAlign=middle;" connectable="0" vertex="1" parent="6ZiX3sD0n53-EVIy7DBn-99">
          <mxGeometry relative="1" as="geometry" />
        </mxCell>
        <mxCell id="6ZiX3sD0n53-EVIy7DBn-101" value="Precio" style="ellipse;whiteSpace=wrap;html=1;" vertex="1" parent="en6OQ1vkhQpd69jf1zTb-2">
          <mxGeometry x="100" y="470" width="83.75" height="50" as="geometry" />
        </mxCell>
        <mxCell id="6ZiX3sD0n53-EVIy7DBn-102" value="" style="endArrow=classic;html=1;rounded=0;exitX=0.5;exitY=0;exitDx=0;exitDy=0;entryX=0.5;entryY=1;entryDx=0;entryDy=0;" edge="1" parent="en6OQ1vkhQpd69jf1zTb-2" source="en6OQ1vkhQpd69jf1zTb-7" target="6ZiX3sD0n53-EVIy7DBn-101">
          <mxGeometry relative="1" as="geometry">
            <mxPoint x="239.5" y="577" as="sourcePoint" />
            <mxPoint x="271.5" y="530" as="targetPoint" />
          </mxGeometry>
        </mxCell>
        <mxCell id="6ZiX3sD0n53-EVIy7DBn-103" value="Extends" style="edgeLabel;resizable=0;html=1;;align=center;verticalAlign=middle;" connectable="0" vertex="1" parent="6ZiX3sD0n53-EVIy7DBn-102">
          <mxGeometry relative="1" as="geometry" />
        </mxCell>
        <mxCell id="6ZiX3sD0n53-EVIy7DBn-104" value="Precio" style="ellipse;whiteSpace=wrap;html=1;" vertex="1" parent="en6OQ1vkhQpd69jf1zTb-2">
          <mxGeometry x="365.75" y="660" width="83.75" height="50" as="geometry" />
        </mxCell>
        <mxCell id="6ZiX3sD0n53-EVIy7DBn-105" value="Calorias" style="ellipse;whiteSpace=wrap;html=1;" vertex="1" parent="en6OQ1vkhQpd69jf1zTb-2">
          <mxGeometry x="305" y="790" width="83.75" height="50" as="geometry" />
        </mxCell>
        <mxCell id="6ZiX3sD0n53-EVIy7DBn-106" value="Supermercado" style="ellipse;whiteSpace=wrap;html=1;" vertex="1" parent="en6OQ1vkhQpd69jf1zTb-2">
          <mxGeometry x="405" y="730" width="83.75" height="50" as="geometry" />
        </mxCell>
        <mxCell id="6ZiX3sD0n53-EVIy7DBn-107" value="" style="endArrow=classic;html=1;rounded=0;exitX=0;exitY=1;exitDx=0;exitDy=0;entryX=1;entryY=0;entryDx=0;entryDy=0;" edge="1" parent="en6OQ1vkhQpd69jf1zTb-2" source="6ZiX3sD0n53-EVIy7DBn-104" target="KXxqBj54iLF5H491kml4-97">
          <mxGeometry relative="1" as="geometry">
            <mxPoint x="231.75" y="743" as="sourcePoint" />
            <mxPoint x="125.75" y="740" as="targetPoint" />
          </mxGeometry>
        </mxCell>
        <mxCell id="6ZiX3sD0n53-EVIy7DBn-108" value="Include" style="edgeLabel;resizable=0;html=1;;align=center;verticalAlign=middle;" connectable="0" vertex="1" parent="6ZiX3sD0n53-EVIy7DBn-107">
          <mxGeometry relative="1" as="geometry" />
        </mxCell>
        <mxCell id="6ZiX3sD0n53-EVIy7DBn-109" value="" style="endArrow=classic;html=1;rounded=0;exitX=0;exitY=0;exitDx=0;exitDy=0;entryX=0.5;entryY=1;entryDx=0;entryDy=0;" edge="1" parent="en6OQ1vkhQpd69jf1zTb-2" source="6ZiX3sD0n53-EVIy7DBn-105" target="KXxqBj54iLF5H491kml4-97">
          <mxGeometry relative="1" as="geometry">
            <mxPoint x="241.75" y="753" as="sourcePoint" />
            <mxPoint x="135.75" y="750" as="targetPoint" />
          </mxGeometry>
        </mxCell>
        <mxCell id="6ZiX3sD0n53-EVIy7DBn-110" value="Include" style="edgeLabel;resizable=0;html=1;;align=center;verticalAlign=middle;" connectable="0" vertex="1" parent="6ZiX3sD0n53-EVIy7DBn-109">
          <mxGeometry relative="1" as="geometry" />
        </mxCell>
        <mxCell id="6ZiX3sD0n53-EVIy7DBn-111" value="" style="endArrow=classic;html=1;rounded=0;exitX=0;exitY=0.5;exitDx=0;exitDy=0;entryX=1.009;entryY=0.629;entryDx=0;entryDy=0;entryPerimeter=0;" edge="1" parent="en6OQ1vkhQpd69jf1zTb-2" source="6ZiX3sD0n53-EVIy7DBn-106" target="KXxqBj54iLF5H491kml4-97">
          <mxGeometry relative="1" as="geometry">
            <mxPoint x="251.75" y="763" as="sourcePoint" />
            <mxPoint x="145.75" y="760" as="targetPoint" />
          </mxGeometry>
        </mxCell>
        <mxCell id="6ZiX3sD0n53-EVIy7DBn-112" value="Include" style="edgeLabel;resizable=0;html=1;;align=center;verticalAlign=middle;" connectable="0" vertex="1" parent="6ZiX3sD0n53-EVIy7DBn-111">
          <mxGeometry relative="1" as="geometry" />
        </mxCell>
        <mxCell id="6ZiX3sD0n53-EVIy7DBn-113" value="Nombre" style="ellipse;whiteSpace=wrap;html=1;" vertex="1" parent="en6OQ1vkhQpd69jf1zTb-2">
          <mxGeometry x="420.13" y="932.5" width="83.75" height="50" as="geometry" />
        </mxCell>
        <mxCell id="6ZiX3sD0n53-EVIy7DBn-114" value="" style="endArrow=classic;html=1;rounded=0;exitX=1;exitY=0;exitDx=0;exitDy=0;entryX=0;entryY=0.5;entryDx=0;entryDy=0;" edge="1" parent="en6OQ1vkhQpd69jf1zTb-2" source="KXxqBj54iLF5H491kml4-112" target="6ZiX3sD0n53-EVIy7DBn-113">
          <mxGeometry relative="1" as="geometry">
            <mxPoint x="275" y="607" as="sourcePoint" />
            <mxPoint x="307" y="560" as="targetPoint" />
          </mxGeometry>
        </mxCell>
        <mxCell id="6ZiX3sD0n53-EVIy7DBn-115" value="Extends" style="edgeLabel;resizable=0;html=1;;align=center;verticalAlign=middle;" connectable="0" vertex="1" parent="6ZiX3sD0n53-EVIy7DBn-114">
          <mxGeometry relative="1" as="geometry" />
        </mxCell>
        <mxCell id="6ZiX3sD0n53-EVIy7DBn-116" value="Generar reporte" style="ellipse;whiteSpace=wrap;html=1;" vertex="1" parent="en6OQ1vkhQpd69jf1zTb-2">
          <mxGeometry x="439.25" y="1010" width="100.75" height="50" as="geometry" />
        </mxCell>
        <mxCell id="6ZiX3sD0n53-EVIy7DBn-117" value="" style="endArrow=classic;html=1;rounded=0;exitX=1;exitY=0.5;exitDx=0;exitDy=0;entryX=0;entryY=0.5;entryDx=0;entryDy=0;" edge="1" parent="en6OQ1vkhQpd69jf1zTb-2" source="KXxqBj54iLF5H491kml4-112" target="6ZiX3sD0n53-EVIy7DBn-116">
          <mxGeometry relative="1" as="geometry">
            <mxPoint x="363" y="1002" as="sourcePoint" />
            <mxPoint x="430" y="968" as="targetPoint" />
          </mxGeometry>
        </mxCell>
        <mxCell id="6ZiX3sD0n53-EVIy7DBn-118" value="Extends" style="edgeLabel;resizable=0;html=1;;align=center;verticalAlign=middle;" connectable="0" vertex="1" parent="6ZiX3sD0n53-EVIy7DBn-117">
          <mxGeometry relative="1" as="geometry" />
        </mxCell>
        <mxCell id="6ZiX3sD0n53-EVIy7DBn-119" value="Lista compra" style="ellipse;whiteSpace=wrap;html=1;" vertex="1" parent="en6OQ1vkhQpd69jf1zTb-2">
          <mxGeometry x="82.13" y="1200" width="115" height="65" as="geometry" />
        </mxCell>
        <mxCell id="6ZiX3sD0n53-EVIy7DBn-121" value="Agregar productos" style="ellipse;whiteSpace=wrap;html=1;" vertex="1" parent="en6OQ1vkhQpd69jf1zTb-2">
          <mxGeometry x="267.75" y="1140" width="109.25" height="70" as="geometry" />
        </mxCell>
        <mxCell id="6ZiX3sD0n53-EVIy7DBn-122" value="" style="endArrow=classic;html=1;rounded=0;exitX=1;exitY=0;exitDx=0;exitDy=0;entryX=0;entryY=0.5;entryDx=0;entryDy=0;" edge="1" parent="en6OQ1vkhQpd69jf1zTb-2" source="6ZiX3sD0n53-EVIy7DBn-119" target="6ZiX3sD0n53-EVIy7DBn-121">
          <mxGeometry relative="1" as="geometry">
            <mxPoint x="360.75" y="1062" as="sourcePoint" />
            <mxPoint x="427.75" y="1028" as="targetPoint" />
          </mxGeometry>
        </mxCell>
        <mxCell id="6ZiX3sD0n53-EVIy7DBn-123" value="Extends" style="edgeLabel;resizable=0;html=1;;align=center;verticalAlign=middle;" connectable="0" vertex="1" parent="6ZiX3sD0n53-EVIy7DBn-122">
          <mxGeometry relative="1" as="geometry" />
        </mxCell>
        <mxCell id="6ZiX3sD0n53-EVIy7DBn-124" value="Precio compra" style="ellipse;whiteSpace=wrap;html=1;" vertex="1" parent="en6OQ1vkhQpd69jf1zTb-2">
          <mxGeometry x="260" y="1240" width="105" height="60" as="geometry" />
        </mxCell>
        <mxCell id="6ZiX3sD0n53-EVIy7DBn-125" value="" style="endArrow=classic;html=1;rounded=0;exitX=0;exitY=0;exitDx=0;exitDy=0;entryX=0.987;entryY=0.414;entryDx=0;entryDy=0;entryPerimeter=0;" edge="1" parent="en6OQ1vkhQpd69jf1zTb-2" source="6ZiX3sD0n53-EVIy7DBn-124" target="6ZiX3sD0n53-EVIy7DBn-119">
          <mxGeometry relative="1" as="geometry">
            <mxPoint x="327" y="808" as="sourcePoint" />
            <mxPoint x="279" y="770" as="targetPoint" />
          </mxGeometry>
        </mxCell>
        <mxCell id="6ZiX3sD0n53-EVIy7DBn-126" value="Include" style="edgeLabel;resizable=0;html=1;;align=center;verticalAlign=middle;" connectable="0" vertex="1" parent="6ZiX3sD0n53-EVIy7DBn-125">
          <mxGeometry relative="1" as="geometry" />
        </mxCell>
        <mxCell id="6ZiX3sD0n53-EVIy7DBn-134" value="Preferencias" style="ellipse;whiteSpace=wrap;html=1;" vertex="1" parent="en6OQ1vkhQpd69jf1zTb-2">
          <mxGeometry x="82.88" y="1375" width="115" height="65" as="geometry" />
        </mxCell>
        <mxCell id="6ZiX3sD0n53-EVIy7DBn-135" value="" style="endArrow=classic;html=1;rounded=0;exitX=1;exitY=0;exitDx=0;exitDy=0;entryX=0;entryY=0.5;entryDx=0;entryDy=0;" edge="1" parent="en6OQ1vkhQpd69jf1zTb-2" source="6ZiX3sD0n53-EVIy7DBn-134" target="6ZiX3sD0n53-EVIy7DBn-140">
          <mxGeometry relative="1" as="geometry">
            <mxPoint x="361.5" y="1237" as="sourcePoint" />
            <mxPoint x="268.75" y="1350" as="targetPoint" />
          </mxGeometry>
        </mxCell>
        <mxCell id="6ZiX3sD0n53-EVIy7DBn-136" value="Extends" style="edgeLabel;resizable=0;html=1;;align=center;verticalAlign=middle;" connectable="0" vertex="1" parent="6ZiX3sD0n53-EVIy7DBn-135">
          <mxGeometry relative="1" as="geometry" />
        </mxCell>
        <mxCell id="6ZiX3sD0n53-EVIy7DBn-137" value="Modo oscuro" style="ellipse;whiteSpace=wrap;html=1;" vertex="1" parent="en6OQ1vkhQpd69jf1zTb-2">
          <mxGeometry x="239.5" y="1450" width="105" height="60" as="geometry" />
        </mxCell>
        <mxCell id="6ZiX3sD0n53-EVIy7DBn-140" value="Habilitar/Deshabilitar notificaciones" style="ellipse;whiteSpace=wrap;html=1;" vertex="1" parent="en6OQ1vkhQpd69jf1zTb-2">
          <mxGeometry x="260.75" y="1340" width="139.25" height="70" as="geometry" />
        </mxCell>
        <mxCell id="6ZiX3sD0n53-EVIy7DBn-141" value="" style="endArrow=classic;html=1;rounded=0;exitX=1;exitY=1;exitDx=0;exitDy=0;entryX=0;entryY=0;entryDx=0;entryDy=0;" edge="1" parent="en6OQ1vkhQpd69jf1zTb-2" source="6ZiX3sD0n53-EVIy7DBn-134" target="6ZiX3sD0n53-EVIy7DBn-137">
          <mxGeometry relative="1" as="geometry">
            <mxPoint x="191" y="1395" as="sourcePoint" />
            <mxPoint x="271" y="1385" as="targetPoint" />
          </mxGeometry>
        </mxCell>
        <mxCell id="6ZiX3sD0n53-EVIy7DBn-142" value="Extends" style="edgeLabel;resizable=0;html=1;;align=center;verticalAlign=middle;" connectable="0" vertex="1" parent="6ZiX3sD0n53-EVIy7DBn-141">
          <mxGeometry relative="1" as="geometry" />
        </mxCell>
        <mxCell id="en6OQ1vkhQpd69jf1zTb-3" value="Usuario" style="shape=umlActor;verticalLabelPosition=bottom;verticalAlign=top;html=1;outlineConnect=0;" parent="1" vertex="1">
          <mxGeometry x="80" y="320" width="40" height="80" as="geometry" />
        </mxCell>
        <mxCell id="en6OQ1vkhQpd69jf1zTb-4" value="Administrador" style="shape=umlActor;verticalLabelPosition=bottom;verticalAlign=top;html=1;outlineConnect=0;" parent="1" vertex="1">
          <mxGeometry x="1480" y="360" width="40" height="80" as="geometry" />
        </mxCell>
        <mxCell id="en6OQ1vkhQpd69jf1zTb-8" value="" style="endArrow=none;html=1;rounded=0;exitX=0.5;exitY=0.5;exitDx=0;exitDy=0;exitPerimeter=0;entryX=0;entryY=0.5;entryDx=0;entryDy=0;" parent="1" source="en6OQ1vkhQpd69jf1zTb-3" target="en6OQ1vkhQpd69jf1zTb-5" edge="1">
          <mxGeometry width="50" height="50" relative="1" as="geometry">
            <mxPoint x="560" y="430" as="sourcePoint" />
            <mxPoint x="610" y="380" as="targetPoint" />
          </mxGeometry>
        </mxCell>
        <mxCell id="en6OQ1vkhQpd69jf1zTb-15" value="" style="endArrow=none;html=1;rounded=0;exitX=0.5;exitY=0.5;exitDx=0;exitDy=0;exitPerimeter=0;entryX=1;entryY=0.5;entryDx=0;entryDy=0;" parent="1" source="en6OQ1vkhQpd69jf1zTb-4" target="en6OQ1vkhQpd69jf1zTb-11" edge="1">
          <mxGeometry width="50" height="50" relative="1" as="geometry">
            <mxPoint x="560" y="430" as="sourcePoint" />
            <mxPoint x="610" y="380" as="targetPoint" />
          </mxGeometry>
        </mxCell>
        <mxCell id="en6OQ1vkhQpd69jf1zTb-24" value="" style="endArrow=none;html=1;rounded=0;exitX=0.5;exitY=0.5;exitDx=0;exitDy=0;exitPerimeter=0;entryX=0;entryY=0.5;entryDx=0;entryDy=0;" parent="1" source="en6OQ1vkhQpd69jf1zTb-3" target="en6OQ1vkhQpd69jf1zTb-23" edge="1">
          <mxGeometry width="50" height="50" relative="1" as="geometry">
            <mxPoint x="460" y="540" as="sourcePoint" />
            <mxPoint x="510" y="490" as="targetPoint" />
          </mxGeometry>
        </mxCell>
        <mxCell id="en6OQ1vkhQpd69jf1zTb-31" value="" style="endArrow=none;html=1;rounded=0;exitX=0.5;exitY=0.5;exitDx=0;exitDy=0;exitPerimeter=0;entryX=0;entryY=0.5;entryDx=0;entryDy=0;" parent="1" source="en6OQ1vkhQpd69jf1zTb-3" target="en6OQ1vkhQpd69jf1zTb-30" edge="1">
          <mxGeometry width="50" height="50" relative="1" as="geometry">
            <mxPoint x="500" y="470" as="sourcePoint" />
            <mxPoint x="550" y="420" as="targetPoint" />
          </mxGeometry>
        </mxCell>
        <mxCell id="en6OQ1vkhQpd69jf1zTb-32" value="" style="endArrow=none;html=1;rounded=0;exitX=0.5;exitY=0.5;exitDx=0;exitDy=0;exitPerimeter=0;entryX=1;entryY=1;entryDx=0;entryDy=0;" parent="1" source="en6OQ1vkhQpd69jf1zTb-4" target="en6OQ1vkhQpd69jf1zTb-25" edge="1">
          <mxGeometry width="50" height="50" relative="1" as="geometry">
            <mxPoint x="1160" y="500" as="sourcePoint" />
            <mxPoint x="930" y="445" as="targetPoint" />
          </mxGeometry>
        </mxCell>
        <mxCell id="KXxqBj54iLF5H491kml4-110" value="" style="endArrow=none;html=1;rounded=0;exitX=0.5;exitY=0.5;exitDx=0;exitDy=0;exitPerimeter=0;entryX=0;entryY=0;entryDx=0;entryDy=0;" parent="1" source="en6OQ1vkhQpd69jf1zTb-3" target="KXxqBj54iLF5H491kml4-109" edge="1">
          <mxGeometry width="50" height="50" relative="1" as="geometry">
            <mxPoint x="110" y="370" as="sourcePoint" />
            <mxPoint x="275" y="363" as="targetPoint" />
          </mxGeometry>
        </mxCell>
        <mxCell id="KXxqBj54iLF5H491kml4-127" value="" style="endArrow=none;html=1;rounded=0;entryX=1;entryY=0.5;entryDx=0;entryDy=0;" parent="1" target="KXxqBj54iLF5H491kml4-117" edge="1">
          <mxGeometry width="50" height="50" relative="1" as="geometry">
            <mxPoint x="1500" y="400" as="sourcePoint" />
            <mxPoint x="1180" y="110" as="targetPoint" />
          </mxGeometry>
        </mxCell>
        <mxCell id="6ZiX3sD0n53-EVIy7DBn-120" value="" style="endArrow=none;html=1;rounded=0;exitX=0.5;exitY=0.5;exitDx=0;exitDy=0;exitPerimeter=0;entryX=0;entryY=0;entryDx=0;entryDy=0;" edge="1" parent="1" source="en6OQ1vkhQpd69jf1zTb-3" target="6ZiX3sD0n53-EVIy7DBn-119">
          <mxGeometry width="50" height="50" relative="1" as="geometry">
            <mxPoint x="110" y="370" as="sourcePoint" />
            <mxPoint x="307" y="735" as="targetPoint" />
          </mxGeometry>
        </mxCell>
        <mxCell id="6ZiX3sD0n53-EVIy7DBn-143" value="" style="endArrow=none;html=1;rounded=0;entryX=0;entryY=0.5;entryDx=0;entryDy=0;" edge="1" parent="1" target="6ZiX3sD0n53-EVIy7DBn-134">
          <mxGeometry width="50" height="50" relative="1" as="geometry">
            <mxPoint x="100" y="360" as="sourcePoint" />
            <mxPoint x="309" y="979" as="targetPoint" />
          </mxGeometry>
        </mxCell>
      </root>
    </mxGraphModel>
  </diagram>
</mxfile>
